PathFileType	4	(X/Y/Z)	C:\Users\86182\Documents\cortex\Trimmed_M3_H9.trc
DataRate	CameraRate	NumFrames	NumMarkers	Units	OrigDataRate	OrigDataStartFrame	OrigNumFrames
100.00	100.00	       85	2	mm	100.00	181	       901
Frame#	Time	gripper			box			
		X1	Y1	Z1	X2	Y2	Z2	

181	1.800	267.98361	172.39888	221.55482	269.08377	169.55060	85.08667	
182	1.810	267.99741	172.39973	222.00139	269.15698	169.52539	85.49864	
183	1.820	268.01440	172.40204	222.45049	269.35144	169.43950	85.83566	
184	1.830	268.03220	172.40633	222.89828	269.63187	169.31055	86.11455	
185	1.840	268.04898	172.41269	223.34225	269.92853	169.17354	86.37421	
186	1.850	268.06488	172.41953	223.78217	270.15399	169.07362	86.66752	
187	1.860	268.08121	172.42404	224.21805	270.26505	169.03271	87.02393	
188	1.870	268.09805	172.42456	224.64844	270.29755	169.02972	87.42577	
189	1.880	268.11331	172.42239	225.07159	270.30576	169.03438	87.84248	
190	1.890	268.12479	172.42079	225.48784	270.28561	169.05104	88.27654	
191	1.900	268.13293	172.42157	225.90001	270.17908	169.11546	88.76209	
192	1.910	268.14050	172.42343	226.31192	269.95590	169.24655	89.31741	
193	1.920	268.14911	172.42366	226.72690	269.66977	169.41348	89.91161	
194	1.930	268.15747	172.42145	227.14706	269.41492	169.56215	90.49069	
195	1.940	268.16367	172.41951	227.57324	269.26120	169.65463	91.01537	
196	1.950	268.16788	172.42137	228.00563	269.23950	169.67711	91.46669	
197	1.960	268.17151	172.42796	228.44376	269.34863	169.63315	91.84102	
198	1.970	268.17514	172.43758	228.88589	269.55667	169.54036	92.15296	
199	1.980	268.17776	172.44867	229.32965	269.79800	169.43230	92.44202	
200	1.990	268.17731	172.46135	229.77299	269.98926	169.35193	92.76204	
201	2.000	268.17172	172.47708	230.21436	270.08832	169.32076	93.13919	
202	2.010	268.16043	172.49699	230.65213	270.12967	169.31897	93.54770	
203	2.020	268.14481	172.52031	231.08484	270.16977	169.31410	93.94739	
204	2.030	268.12686	172.54480	231.51126	270.21545	169.30063	94.33316	
205	2.040	268.10828	172.56879	231.93095	270.22491	169.30128	94.73491	
206	2.050	268.09082	172.59195	232.34509	270.17636	169.33011	95.17097	
207	2.060	268.07632	172.61363	232.75629	270.11087	169.36691	95.61785	
208	2.070	268.06644	172.63135	233.16673	270.08353	169.38177	96.04019	
209	2.080	268.06223	172.64243	233.57748	270.09479	169.37308	96.43541	
210	2.090	268.06409	172.64679	233.98978	270.09476	169.36804	96.83469	
211	2.100	268.07199	172.64679	234.40584	270.05569	169.38402	97.26084	
212	2.110	268.08609	172.64461	234.82715	270.01651	169.40279	97.69839	
213	2.120	268.10587	172.64093	235.25336	270.03119	169.39668	98.11914	
214	2.130	268.12946	172.63608	235.68393	270.09790	169.36662	98.52266	
215	2.140	268.15427	172.63138	236.11960	270.16275	169.34108	98.93707	
216	2.150	268.17813	172.62892	236.56175	270.19412	169.33699	99.37854	
217	2.160	268.20032	172.63033	237.01111	270.22864	169.33487	99.82443	
218	2.170	268.22153	172.63617	237.46692	270.31854	169.30617	100.24281	
219	2.180	268.24231	172.64676	237.92676	270.45731	169.25288	100.63501	
220	2.190	268.26193	172.66209	238.38730	270.58035	169.20842	101.03503	
221	2.200	268.27850	172.68201	238.84593	270.63535	169.20090	101.46899	
222	2.210	268.28952	172.70657	239.30067	270.62552	169.22887	101.93211	
223	2.220	268.29245	172.73627	239.74945	270.55774	169.28784	102.42061	
224	2.230	268.28558	172.77110	240.19060	270.39566	169.39584	102.95625	
225	2.240	268.26968	172.80948	240.62331	270.11432	169.56511	103.55038	
226	2.250	268.24771	172.84822	241.04724	269.75757	169.77142	104.17294	
227	2.260	268.22336	172.88336	241.46313	269.40149	169.97429	104.78122	
228	2.270	268.19977	172.91150	241.87369	269.09750	170.14693	105.35406	
229	2.280	268.17963	172.93108	242.28297	268.86530	170.27872	105.88892	
230	2.290	268.16592	172.94235	242.69423	268.70590	170.36783	106.38803	
231	2.300	268.16153	172.94629	243.10890	268.60956	170.41843	106.85526	
232	2.310	268.16736	172.94368	243.52753	268.56192	170.43898	107.29727	
233	2.320	268.18167	172.93607	243.95078	268.55042	170.43890	107.72272	
234	2.330	268.20175	172.92590	244.37958	268.56885	170.42383	108.13831	
235	2.340	268.22513	172.91545	244.81433	268.61926	170.39299	108.54559	
236	2.350	268.24890	172.90567	245.25374	268.70868	170.34145	108.93993	
237	2.360	268.26990	172.89685	245.69476	268.84415	170.26421	109.31218	
238	2.370	268.28647	172.88918	246.13449	269.03009	170.15822	109.65359	
239	2.380	268.29819	172.88258	246.57140	269.26746	170.02321	109.96072	
240	2.390	268.30450	172.87675	247.00421	269.54742	169.86436	110.23813	
241	2.400	268.30411	172.87132	247.43130	269.83670	169.69888	110.50238	
242	2.410	268.29526	172.86612	247.85210	270.06207	169.56474	110.79097	
243	2.420	268.27600	172.86143	248.26794	270.12799	169.51430	111.15754	
244	2.430	268.24506	172.85828	248.68076	269.99011	169.57516	111.63188	
245	2.440	268.20370	172.85770	249.09225	269.70215	169.72189	112.18906	
246	2.450	268.15570	172.85982	249.50398	269.36151	169.90193	112.77680	
247	2.460	268.10559	172.86340	249.91675	269.03882	170.07362	113.35539	
248	2.470	268.05762	172.86642	250.33044	268.76776	170.21542	113.90436	
249	2.480	268.01514	172.86754	250.74582	268.56125	170.32117	114.41594	
250	2.490	267.98019	172.86729	251.16559	268.42017	170.39427	114.89243	
251	2.500	267.95404	172.86748	251.59189	268.33731	170.44162	115.34344	
252	2.510	267.93741	172.86906	252.02353	268.30029	170.46935	115.78093	
253	2.520	267.93063	172.87097	252.45760	268.29526	170.48227	116.21321	
254	2.530	267.93375	172.87149	252.89285	268.31027	170.48520	116.64296	
255	2.540	267.94525	172.87053	253.33026	268.33652	170.48338	117.07045	
256	2.550	267.96152	172.86983	253.77116	268.36691	170.48143	117.49757	
257	2.560	267.97842	172.87093	254.21529	268.39529	170.48201	117.92773	
258	2.570	267.99246	172.87366	254.66040	268.41785	170.48584	118.36282	
259	2.580	268.00070	172.87671	255.10461	268.43378	170.49272	118.80141	
260	2.590	268.00195	172.87955	255.54832	268.44318	170.50298	119.24030	
261	2.600	267.99716	172.88306	255.99181	268.44540	170.51761	119.67741	
262	2.610	267.98767	172.88802	256.43243	268.44040	170.53719	120.11282	
263	2.620	267.97452	172.89362	256.86642	268.42984	170.56036	120.54668	
264	2.630	267.96036	172.89801	257.29239	268.41620	170.58363	120.97717	
265	2.640	267.94809	172.90015	257.71216	268.39999	170.60295	121.40199	
